<svg width="400" height="400" viewBox="0 0 400 400" fill="none" xmlns="http://www.w3.org/2000/svg">
<path d="M39.6 213.424C39.6 255.859 56.4571 296.555 86.4629 326.561C116.469 356.567 157.165 373.424 199.6 373.424C242.035 373.424 282.731 356.567 312.737 326.561C342.743 296.555 359.6 255.859 359.6 213.424C359.6 170.989 342.743 130.293 312.737 100.287C282.731 70.2812 242.035 53.4241 199.6 53.4241C157.165 53.4241 116.469 70.2812 86.4629 100.287C56.4571 130.293 39.6 170.989 39.6 213.424V213.424Z" fill="#E8F4FA" stroke="#DAEDF7" stroke-width="4"/>
<path opacity="0.15" d="M38.072 336.352C38.072 337.179 42.1227 337.999 49.9928 338.763C57.8629 339.527 69.3982 340.222 83.9403 340.807C98.4823 341.392 115.746 341.856 134.746 342.172C153.746 342.489 174.11 342.652 194.676 342.652C215.242 342.652 235.606 342.489 254.606 342.172C273.606 341.856 290.87 341.392 305.412 340.807C319.954 340.222 331.489 339.527 339.359 338.763C347.229 337.999 351.28 337.179 351.28 336.352C351.28 335.525 347.229 334.705 339.359 333.941C331.489 333.177 319.954 332.482 305.412 331.897C290.87 331.312 273.606 330.848 254.606 330.532C235.606 330.215 215.242 330.052 194.676 330.052C174.11 330.052 153.746 330.215 134.746 330.532C115.746 330.848 98.4823 331.312 83.9403 331.897C69.3982 332.482 57.8629 333.177 49.9928 333.941C42.1227 334.705 38.072 335.525 38.072 336.352V336.352Z" fill="#45413C"/>
<path d="M229.096 307.2C218.064 307.2 204.54 345.6 165.708 329.564C147.284 321.964 111.636 344.908 98.028 322.764C97.228 321.46 96.276 319.784 96.276 319.784C125.812 322.584 118.2 298.584 152.8 306.008C154.629 306.365 156.515 306.303 158.316 305.826C160.117 305.349 161.787 304.471 163.2 303.256C164.625 302.068 165.773 300.583 166.564 298.905C167.356 297.226 167.77 295.395 167.78 293.54C167.787 291.745 167.44 289.965 166.759 288.304C166.077 286.643 165.074 285.133 163.808 283.86C162.541 282.588 161.036 281.577 159.379 280.887C157.721 280.198 155.943 279.842 154.148 279.84H147.468C135.603 279.828 124.227 275.11 115.836 266.721C107.446 258.332 102.726 246.957 102.712 235.092C102.723 229.206 103.922 223.384 106.237 217.972C108.551 212.561 111.935 207.673 116.184 203.6C117.887 201.976 119.118 199.922 119.746 197.655C120.375 195.388 120.379 192.993 119.756 190.724C118.304 185.428 118.58 158.108 134.252 158.108L139.816 179.072C144.044 194.524 148.816 214.596 137.236 225.652C135.962 226.871 134.948 228.335 134.253 229.956C133.559 231.577 133.2 233.321 133.196 235.084C133.2 238.864 134.704 242.487 137.376 245.16C140.049 247.833 143.672 249.336 147.452 249.34C150.128 249.34 152.777 248.813 155.25 247.789C157.722 246.765 159.968 245.264 161.86 243.372C163.752 241.48 165.253 239.234 166.277 236.762C167.301 234.29 167.828 231.64 167.828 228.964V142.46C167.959 126.295 174.472 110.836 185.949 99.4518C197.426 88.0673 212.936 81.6792 229.102 81.6792C245.268 81.6792 260.778 88.0673 272.255 99.4518C283.732 110.836 290.245 126.295 290.376 142.46V228.972C290.382 234.375 292.532 239.555 296.352 243.375C300.173 247.195 305.353 249.343 310.756 249.348C314.535 249.343 318.158 247.839 320.829 245.167C323.501 242.494 325.004 238.871 325.008 235.092C325.004 233.329 324.645 231.585 323.951 229.965C323.258 228.344 322.245 226.88 320.972 225.66C309.372 214.604 314.172 194.532 318.392 179.08L323.952 158.116C339.624 158.116 339.9 185.436 338.452 190.732C337.828 193.001 337.831 195.396 338.46 197.663C339.089 199.931 340.321 201.985 342.024 203.608C346.272 207.68 349.655 212.567 351.97 217.977C354.285 223.386 355.484 229.208 355.496 235.092C355.48 246.953 350.761 258.324 342.374 266.711C333.987 275.097 322.617 279.816 310.756 279.832H304.076C302.28 279.833 300.502 280.188 298.844 280.877C297.186 281.567 295.68 282.577 294.414 283.85C293.147 285.123 292.144 286.634 291.463 288.295C290.782 289.957 290.436 291.736 290.444 293.532C290.453 295.388 290.867 297.219 291.658 298.897C292.45 300.575 293.598 302.061 295.024 303.248C296.434 304.46 298.101 305.338 299.898 305.814C301.696 306.291 303.578 306.354 305.404 306C340 298.584 332.4 322.564 361.928 319.776C361.928 319.776 360.976 321.452 360.176 322.756C346.576 344.908 310.92 321.956 292.496 329.556C253.664 345.6 240.14 307.2 229.112 307.2H229.096Z" fill="#00B8F0"/>
<path d="M229.104 96.476C237.151 96.476 245.119 98.061 252.553 101.14C259.987 104.22 266.742 108.734 272.431 114.424C278.121 120.114 282.634 126.869 285.713 134.303C288.792 141.737 290.377 149.705 290.376 157.752V142.46C290.441 134.372 288.905 126.351 285.855 118.859C282.805 111.368 278.302 104.554 272.605 98.8117C266.909 93.0692 260.132 88.5112 252.666 85.4008C245.199 82.2904 237.191 80.689 229.102 80.689C221.014 80.689 213.005 82.2904 205.538 85.4008C198.072 88.5112 191.295 93.0692 185.599 98.8117C179.902 104.554 175.399 111.368 172.349 118.859C169.299 126.351 167.763 134.372 167.828 142.46V157.752C167.828 149.705 169.413 141.737 172.492 134.303C175.572 126.868 180.085 120.113 185.775 114.423C191.465 108.733 198.22 104.22 205.655 101.14C213.089 98.061 221.057 96.476 229.104 96.476V96.476Z" fill="#4ACFFF"/>
<path d="M229.096 307.2C218.064 307.2 204.54 345.6 165.708 329.564C147.284 321.964 111.636 344.908 98.028 322.764C97.228 321.46 96.276 319.784 96.276 319.784C116.9 334.092 131.5 310.552 166.556 317.432C216.336 327.204 197.196 298.232 229.128 307.208" fill="#B8ECFF"/>
<path d="M229.096 307.2C218.064 307.2 204.54 345.6 165.708 329.564C147.284 321.964 111.636 344.908 98.028 322.764C97.228 321.46 96.276 319.784 96.276 319.784C116.9 334.092 131.5 310.552 166.556 317.432C216.336 327.204 197.196 298.232 229.128 307.208" stroke="#45413C" stroke-width="4" stroke-linecap="round" stroke-linejoin="round"/>
<path d="M291.668 317.424C241.888 327.196 261.028 298.224 229.096 307.2C240.124 307.2 253.648 345.6 292.48 329.564C310.904 321.964 346.556 344.912 360.16 322.764C360.96 321.46 361.912 319.784 361.912 319.784C341.224 334.308 326.8 310.528 291.668 317.424Z" fill="#B8ECFF" stroke="#45413C" stroke-width="4" stroke-linecap="round" stroke-linejoin="round"/>
<path d="M229.096 307.2C218.064 307.2 204.54 345.6 165.708 329.564C147.284 321.964 111.636 344.908 98.028 322.764C97.228 321.46 96.276 319.784 96.276 319.784C125.812 322.584 118.2 298.584 152.8 306.008C154.629 306.365 156.515 306.303 158.316 305.826C160.117 305.349 161.787 304.471 163.2 303.256C164.625 302.068 165.773 300.583 166.564 298.905C167.356 297.226 167.77 295.395 167.78 293.54C167.787 291.745 167.44 289.965 166.759 288.304C166.077 286.643 165.074 285.133 163.808 283.86C162.541 282.588 161.036 281.577 159.379 280.887C157.721 280.198 155.943 279.842 154.148 279.84H147.468C135.603 279.828 124.227 275.11 115.836 266.721C107.446 258.332 102.726 246.957 102.712 235.092C102.723 229.206 103.922 223.384 106.237 217.972C108.551 212.561 111.935 207.673 116.184 203.6C117.887 201.976 119.118 199.922 119.746 197.655C120.375 195.388 120.379 192.993 119.756 190.724C118.304 185.428 118.58 158.108 134.252 158.108L139.816 179.072C144.044 194.524 148.816 214.596 137.236 225.652C135.962 226.871 134.948 228.335 134.253 229.956C133.559 231.577 133.2 233.321 133.196 235.084C133.2 238.864 134.704 242.487 137.376 245.16C140.049 247.833 143.672 249.336 147.452 249.34C150.128 249.34 152.777 248.813 155.25 247.789C157.722 246.765 159.968 245.264 161.86 243.372C163.752 241.48 165.253 239.234 166.277 236.762C167.301 234.29 167.828 231.64 167.828 228.964V142.46C167.959 126.295 174.472 110.836 185.949 99.4518C197.426 88.0673 212.936 81.6792 229.102 81.6792C245.268 81.6792 260.778 88.0673 272.255 99.4518C283.732 110.836 290.245 126.295 290.376 142.46V228.972C290.382 234.375 292.532 239.555 296.352 243.375C300.173 247.195 305.353 249.343 310.756 249.348C314.535 249.343 318.158 247.839 320.829 245.167C323.501 242.494 325.004 238.871 325.008 235.092C325.004 233.329 324.645 231.585 323.951 229.965C323.258 228.344 322.245 226.88 320.972 225.66C309.372 214.604 314.172 194.532 318.392 179.08L323.952 158.116C339.624 158.116 339.9 185.436 338.452 190.732C337.828 193.001 337.831 195.396 338.46 197.663C339.089 199.931 340.321 201.985 342.024 203.608C346.272 207.68 349.655 212.567 351.97 217.977C354.285 223.386 355.484 229.208 355.496 235.092C355.48 246.953 350.761 258.324 342.374 266.711C333.987 275.097 322.617 279.816 310.756 279.832H304.076C302.28 279.833 300.502 280.188 298.844 280.877C297.186 281.567 295.68 282.577 294.414 283.85C293.147 285.123 292.144 286.634 291.463 288.295C290.782 289.957 290.436 291.736 290.444 293.532C290.453 295.388 290.867 297.219 291.658 298.897C292.45 300.575 293.598 302.061 295.024 303.248C296.434 304.46 298.101 305.338 299.898 305.814C301.696 306.291 303.578 306.354 305.404 306C340 298.584 332.4 322.564 361.928 319.776C361.928 319.776 360.976 321.452 360.176 322.756C346.576 344.908 310.92 321.956 292.496 329.556C253.664 345.6 240.14 307.2 229.112 307.2H229.096Z" stroke="#45413C" stroke-width="4" stroke-linecap="round" stroke-linejoin="round"/>
<path d="M199.2 131.612C199.2 139.543 202.351 147.149 207.959 152.757C213.567 158.365 221.173 161.516 229.104 161.516C237.035 161.516 244.641 158.365 250.249 152.757C255.857 147.149 259.008 139.543 259.008 131.612C259.008 123.681 255.857 116.075 250.249 110.467C244.641 104.859 237.035 101.708 229.104 101.708C221.173 101.708 213.567 104.859 207.959 110.467C202.351 116.075 199.2 123.681 199.2 131.612V131.612Z" fill="#F0F0F0"/>
<path d="M216.7 131.612C216.7 134.902 218.007 138.057 220.333 140.383C222.659 142.709 225.814 144.016 229.104 144.016C232.394 144.016 235.549 142.709 237.875 140.383C240.201 138.057 241.508 134.902 241.508 131.612C241.508 128.322 240.201 125.167 237.875 122.841C235.549 120.515 232.394 119.208 229.104 119.208C225.814 119.208 222.659 120.515 220.333 122.841C218.007 125.167 216.7 128.322 216.7 131.612V131.612Z" fill="#FF6242" stroke="#45413C" stroke-width="4" stroke-linecap="round" stroke-linejoin="round"/>
<path d="M229.104 200.4C234.976 200.526 240.694 198.523 245.205 194.762C249.715 191 252.713 185.735 253.644 179.936C253.69 179.587 253.649 179.233 253.527 178.903C253.404 178.573 253.203 178.278 252.94 178.044C252.669 177.799 252.346 177.619 251.996 177.516C251.645 177.414 251.276 177.392 250.916 177.452C236.465 179.764 221.739 179.764 207.288 177.452C206.929 177.391 206.56 177.412 206.21 177.515C205.86 177.617 205.538 177.798 205.268 178.044C205.005 178.278 204.803 178.573 204.68 178.902C204.556 179.232 204.515 179.587 204.56 179.936C205.492 185.735 208.49 191.002 213.001 194.763C217.512 198.524 223.232 200.527 229.104 200.4V200.4Z" fill="#FFB0CA" stroke="#45413C" stroke-width="4" stroke-linecap="round" stroke-linejoin="round"/>
<path d="M322.4 198.76C322.4 200.426 322.871 202.023 323.71 203.201C324.549 204.378 325.686 205.04 326.872 205.04C328.058 205.04 329.196 204.378 330.034 203.201C330.873 202.023 331.344 200.426 331.344 198.76C331.344 197.094 330.873 195.497 330.034 194.319C329.196 193.142 328.058 192.48 326.872 192.48C325.686 192.48 324.549 193.142 323.71 194.319C322.871 195.497 322.4 197.094 322.4 198.76V198.76Z" fill="#80DDFF" stroke="#45413C" stroke-width="4" stroke-linecap="round" stroke-linejoin="round"/>
<path d="M334.302 228.369C334.764 229.969 335.66 231.373 336.793 232.272C337.925 233.17 339.201 233.491 340.341 233.161C341.48 232.832 342.39 231.881 342.869 230.517C343.348 229.153 343.357 227.487 342.895 225.887C342.433 224.287 341.537 222.883 340.404 221.984C339.272 221.086 337.995 220.766 336.856 221.095C335.717 221.424 334.807 222.375 334.328 223.739C333.849 225.103 333.84 226.769 334.302 228.369V228.369Z" fill="#80DDFF" stroke="#45413C" stroke-width="4" stroke-linecap="round" stroke-linejoin="round"/>
<path d="M324.491 261.915C325.306 262.776 326.568 263.148 328 262.948C329.432 262.747 330.916 261.992 332.126 260.847C333.336 259.702 334.172 258.262 334.452 256.844C334.731 255.425 334.43 254.144 333.614 253.283C332.799 252.421 331.537 252.05 330.105 252.25C328.673 252.45 327.189 253.205 325.979 254.35C324.769 255.495 323.933 256.935 323.654 258.353C323.374 259.772 323.676 261.053 324.491 261.915V261.915Z" fill="#80DDFF" stroke="#45413C" stroke-width="4" stroke-linecap="round" stroke-linejoin="round"/>
<path d="M198.02 228.244C198.024 226.087 197.261 223.999 195.866 222.353C194.472 220.708 192.537 219.612 190.409 219.262C188.281 218.913 186.097 219.332 184.249 220.444C182.402 221.557 181.01 223.291 180.324 225.336C177.972 231.036 171.296 232.8 168.444 225.008C167.852 223.458 166.848 222.099 165.54 221.078C164.232 220.057 162.669 219.413 161.022 219.216C159.374 219.019 157.704 219.277 156.192 219.961C154.68 220.645 153.384 221.729 152.443 223.096C151.503 224.463 150.955 226.062 150.858 227.718C150.76 229.375 151.118 231.026 151.891 232.495C152.665 233.963 153.825 235.191 155.247 236.047C156.668 236.903 158.297 237.355 159.956 237.352L164.396 251.312V272.3C164.341 275.223 163.141 278.007 161.054 280.054C158.968 282.102 156.161 283.249 153.238 283.249C150.315 283.249 147.508 282.102 145.422 280.054C143.335 278.007 142.135 275.223 142.08 272.3C142.079 262.592 138.222 253.283 131.358 246.418C124.493 239.554 115.184 235.697 105.476 235.696H90.184C80.4791 235.702 71.1739 239.562 64.3137 246.427C57.4536 253.291 53.6 262.599 53.6 272.304V301.424C53.6006 305.549 55.2113 309.51 58.0892 312.465C60.9671 315.42 64.8847 317.135 69.008 317.244V348.252C68.213 348.016 67.3892 347.891 66.56 347.88C64.7712 347.872 63.0192 348.388 61.52 349.364C60.0209 350.34 58.8401 351.733 58.1233 353.372C57.4065 355.011 57.185 356.824 57.4862 358.587C57.7874 360.35 58.598 361.987 59.8182 363.295C61.0383 364.603 62.6146 365.525 64.3527 365.948C66.0908 366.371 67.9147 366.276 69.5994 365.675C71.2841 365.074 72.7561 363.993 73.8337 362.565C74.9114 361.137 75.5476 359.425 75.664 357.64H75.784C75.8859 359.196 76.3843 360.701 77.2317 362.01C78.0792 363.319 79.2476 364.389 80.6257 365.12C82.0038 365.85 83.5458 366.215 85.1049 366.181C86.6641 366.147 88.1886 365.714 89.5333 364.924C90.8781 364.134 91.9984 363.014 92.7876 361.668C93.5769 360.323 94.0088 358.799 94.0423 357.24C94.0759 355.68 93.7099 354.138 92.9792 352.761C92.2486 351.383 91.1775 350.215 89.868 349.368V326.612C89.868 325.626 90.0623 324.649 90.4398 323.737C90.8173 322.826 91.3706 321.998 92.0682 321.3C92.7657 320.603 93.5939 320.049 94.5053 319.672C95.4167 319.294 96.3935 319.1 97.38 319.1C98.3665 319.1 99.3433 319.294 100.255 319.672C101.166 320.049 101.994 320.603 102.692 321.3C103.389 321.998 103.943 322.826 104.32 323.737C104.698 324.649 104.892 325.626 104.892 326.612V348.508C103.334 349.105 101.969 350.117 100.945 351.433C99.9205 352.75 99.2754 354.322 99.0794 355.978C98.8834 357.635 99.1439 359.314 99.8328 360.833C100.522 362.352 101.613 363.655 102.988 364.599C104.363 365.543 105.971 366.093 107.636 366.19C109.302 366.287 110.962 365.927 112.437 365.149C113.913 364.371 115.148 363.204 116.008 361.775C116.869 360.346 117.322 358.708 117.32 357.04C117.316 358.845 117.844 360.611 118.84 362.116C119.835 363.621 121.253 364.799 122.915 365.502C124.577 366.205 126.41 366.402 128.183 366.067C129.957 365.732 131.592 364.881 132.884 363.621C134.175 362.361 135.066 360.747 135.444 358.982C135.823 357.218 135.671 355.381 135.01 353.702C134.348 352.023 133.205 350.577 131.725 349.544C130.244 348.512 128.492 347.94 126.688 347.9V272.3C126.645 275.816 127.3 279.306 128.616 282.567C129.932 285.828 131.882 288.795 134.353 291.297C136.824 293.799 139.767 295.785 143.012 297.14C146.256 298.496 149.738 299.194 153.254 299.194C156.77 299.194 160.252 298.496 163.496 297.14C166.741 295.785 169.684 293.799 172.155 291.297C174.626 288.795 176.576 285.828 177.892 282.567C179.208 279.306 179.863 275.816 179.82 272.3V251.312C182.873 246.837 185.582 242.137 187.924 237.252C189.204 237.455 190.512 237.37 191.756 237.006C192.999 236.641 194.146 236.004 195.113 235.143C196.081 234.281 196.845 233.215 197.35 232.022C197.856 230.829 198.09 229.539 198.036 228.244H198.02Z" fill="#6DD627"/>
<path d="M142.74 276.084C142.301 274.871 142.078 273.59 142.08 272.3C142.079 262.592 138.222 253.283 131.358 246.418C124.493 239.554 115.184 235.697 105.476 235.696H90.184C80.4791 235.702 71.1739 239.562 64.3137 246.427C57.4536 253.291 53.6 262.599 53.6 272.304V285.904C53.6633 276.239 57.5467 266.991 64.4027 260.179C71.2587 253.366 80.5308 249.542 90.196 249.54H105.488C113.453 249.544 121.199 252.146 127.551 256.951C133.904 261.756 138.516 268.501 140.688 276.164L142.74 276.084Z" fill="#9CEB60"/>
<path d="M198.02 228.244C198.024 226.087 197.261 223.999 195.866 222.353C194.472 220.708 192.537 219.612 190.409 219.262C188.281 218.913 186.097 219.332 184.249 220.444C182.402 221.557 181.01 223.291 180.324 225.336C177.972 231.036 171.296 232.8 168.444 225.008C167.852 223.458 166.848 222.099 165.54 221.078C164.232 220.057 162.669 219.413 161.022 219.216C159.374 219.019 157.704 219.277 156.192 219.961C154.68 220.645 153.384 221.729 152.443 223.096C151.503 224.463 150.955 226.062 150.858 227.718C150.76 229.375 151.118 231.026 151.891 232.495C152.665 233.963 153.825 235.191 155.247 236.047C156.668 236.903 158.297 237.355 159.956 237.352L164.396 251.312V272.3C164.341 275.223 163.141 278.007 161.054 280.054C158.968 282.102 156.161 283.249 153.238 283.249C150.315 283.249 147.508 282.102 145.422 280.054C143.335 278.007 142.135 275.223 142.08 272.3C142.079 262.592 138.222 253.283 131.358 246.418C124.493 239.554 115.184 235.697 105.476 235.696H90.184C80.4791 235.702 71.1739 239.562 64.3137 246.427C57.4536 253.291 53.6 262.599 53.6 272.304V301.424C53.6006 305.549 55.2113 309.51 58.0892 312.465C60.9671 315.42 64.8847 317.135 69.008 317.244V348.252C68.213 348.016 67.3892 347.891 66.56 347.88C64.7712 347.872 63.0192 348.388 61.52 349.364C60.0209 350.34 58.8401 351.733 58.1233 353.372C57.4065 355.011 57.185 356.824 57.4862 358.587C57.7874 360.35 58.598 361.987 59.8182 363.295C61.0383 364.603 62.6146 365.525 64.3527 365.948C66.0908 366.371 67.9147 366.276 69.5994 365.675C71.2841 365.074 72.7561 363.993 73.8337 362.565C74.9114 361.137 75.5476 359.425 75.664 357.64H75.784C75.8859 359.196 76.3843 360.701 77.2317 362.01C78.0792 363.319 79.2476 364.389 80.6257 365.12C82.0038 365.85 83.5458 366.215 85.1049 366.181C86.6641 366.147 88.1886 365.714 89.5333 364.924C90.8781 364.134 91.9984 363.014 92.7876 361.668C93.5769 360.323 94.0088 358.799 94.0423 357.24C94.0759 355.68 93.7099 354.138 92.9792 352.761C92.2486 351.383 91.1775 350.215 89.868 349.368V326.612C89.868 325.626 90.0623 324.649 90.4398 323.737C90.8173 322.826 91.3706 321.998 92.0682 321.3C92.7657 320.603 93.5939 320.049 94.5053 319.672C95.4167 319.294 96.3935 319.1 97.38 319.1C98.3665 319.1 99.3433 319.294 100.255 319.672C101.166 320.049 101.994 320.603 102.692 321.3C103.389 321.998 103.943 322.826 104.32 323.737C104.698 324.649 104.892 325.626 104.892 326.612V348.508C103.334 349.105 101.969 350.117 100.945 351.433C99.9205 352.75 99.2754 354.322 99.0794 355.978C98.8834 357.635 99.1439 359.314 99.8328 360.833C100.522 362.352 101.613 363.655 102.988 364.599C104.363 365.543 105.971 366.093 107.636 366.19C109.302 366.287 110.962 365.927 112.437 365.149C113.913 364.371 115.148 363.204 116.008 361.775C116.869 360.346 117.322 358.708 117.32 357.04C117.316 358.845 117.844 360.611 118.84 362.116C119.835 363.621 121.253 364.799 122.915 365.502C124.577 366.205 126.41 366.402 128.183 366.067C129.957 365.732 131.592 364.881 132.884 363.621C134.175 362.361 135.066 360.747 135.444 358.982C135.823 357.218 135.671 355.381 135.01 353.702C134.348 352.023 133.205 350.577 131.725 349.544C130.244 348.512 128.492 347.94 126.688 347.9V272.3C126.645 275.816 127.3 279.306 128.616 282.567C129.932 285.828 131.882 288.795 134.353 291.297C136.824 293.799 139.767 295.785 143.012 297.14C146.256 298.496 149.738 299.194 153.254 299.194C156.77 299.194 160.252 298.496 163.496 297.14C166.741 295.785 169.684 293.799 172.155 291.297C174.626 288.795 176.576 285.828 177.892 282.567C179.208 279.306 179.863 275.816 179.82 272.3V251.312C182.873 246.837 185.582 242.137 187.924 237.252C189.204 237.455 190.512 237.37 191.756 237.006C192.999 236.641 194.146 236.004 195.113 235.143C196.081 234.281 196.845 233.215 197.35 232.022C197.856 230.829 198.09 229.539 198.036 228.244H198.02Z" stroke="#45413C" stroke-width="4" stroke-linecap="round" stroke-linejoin="round"/>
<path d="M147.176 183.152C147.176 208.628 105.976 241.816 97.828 241.816C89.68 241.816 48.48 208.628 48.48 183.152C48.48 157.676 70.576 140.268 97.828 140.268C125.08 140.268 147.176 157.672 147.176 183.152Z" fill="#6DD627"/>
<path d="M105.808 219.68C103.691 221.796 100.821 222.984 97.828 222.984C94.8352 222.984 91.9648 221.796 89.848 219.68" stroke="#45413C" stroke-width="4" stroke-linecap="round" stroke-linejoin="round"/>
<path d="M68.988 317.244V265.468" stroke="#45413C" stroke-width="4" stroke-linecap="round" stroke-linejoin="round"/>
<path d="M146.352 189.696C146.884 187.555 147.161 185.358 147.176 183.152C147.176 157.672 125.08 140.268 97.828 140.268C70.576 140.268 48.48 157.672 48.48 183.152C48.4944 185.356 48.7724 187.55 49.308 189.688C53.472 168.724 73.592 154.94 97.828 154.94C122.064 154.94 142.188 168.724 146.352 189.696Z" fill="#9CEB60"/>
<path d="M147.176 183.152C147.176 208.628 105.976 241.816 97.828 241.816C89.68 241.816 48.48 208.628 48.48 183.152C48.48 157.676 70.576 140.268 97.828 140.268C125.08 140.268 147.176 157.672 147.176 183.152Z" stroke="#45413C" stroke-width="4" stroke-linecap="round" stroke-linejoin="round"/>
<path d="M111.538 200.837C112.934 201.568 114.497 201.944 116.138 201.946C117.78 201.947 119.467 201.573 121.105 200.846C122.743 200.118 124.299 199.051 125.684 197.704C127.069 196.358 128.256 194.76 129.177 193C130.098 191.241 130.736 189.354 131.053 187.449C131.37 185.544 131.36 183.657 131.025 181.897C130.69 180.136 130.035 178.536 129.099 177.188C128.162 175.84 126.962 174.77 125.567 174.039C124.172 173.309 122.609 172.932 120.968 172.931C119.326 172.929 117.638 173.303 116 174.031C114.362 174.759 112.807 175.826 111.422 177.172C110.037 178.519 108.85 180.117 107.929 181.877C107.007 183.636 106.37 185.522 106.053 187.428C105.736 189.333 105.745 191.219 106.08 192.98C106.416 194.741 107.07 196.341 108.007 197.689C108.943 199.037 110.143 200.107 111.538 200.837Z" fill="#656769"/>
<path d="M106.368 185.92C105.429 188.626 105.429 191.569 106.367 194.275C107.305 196.981 109.128 199.292 111.54 200.836C117.404 203.908 125.3 200.4 129.176 193C131.242 189.239 131.798 184.832 130.732 180.676C130.393 182.163 129.87 183.602 129.176 184.96C125.304 192.356 117.404 195.868 111.536 192.796C110.243 192.074 109.115 191.089 108.225 189.905C107.335 188.72 106.702 187.363 106.368 185.92V185.92Z" fill="#525252"/>
<path d="M111.538 200.837C112.934 201.568 114.497 201.944 116.138 201.946C117.78 201.947 119.467 201.573 121.105 200.846C122.743 200.118 124.299 199.051 125.684 197.704C127.069 196.358 128.256 194.76 129.177 193C130.098 191.241 130.736 189.354 131.053 187.449C131.37 185.544 131.36 183.657 131.025 181.897C130.69 180.136 130.035 178.536 129.099 177.188C128.162 175.84 126.962 174.77 125.567 174.039C124.172 173.309 122.609 172.932 120.968 172.931C119.326 172.929 117.638 173.303 116 174.031C114.362 174.759 112.807 175.826 111.422 177.172C110.037 178.519 108.85 180.117 107.929 181.877C107.007 183.636 106.37 185.522 106.053 187.428C105.736 189.333 105.745 191.219 106.08 192.98C106.416 194.741 107.07 196.341 108.007 197.689C108.943 199.037 110.143 200.107 111.538 200.837Z" stroke="#45413C" stroke-width="4" stroke-linecap="round" stroke-linejoin="round"/>
<path d="M66.4715 193.003C67.3927 194.762 68.5796 196.361 69.9645 197.707C71.3495 199.053 72.9053 200.121 74.5432 200.848C76.1811 201.576 77.869 201.95 79.5105 201.948C81.152 201.947 82.715 201.57 84.1102 200.84C85.5054 200.11 86.7055 199.04 87.6419 197.692C88.5784 196.344 89.233 194.743 89.5682 192.983C89.9034 191.222 89.9127 189.335 89.5956 187.43C89.2785 185.525 88.6412 183.639 87.72 181.879C86.7989 180.12 85.612 178.521 84.227 177.175C82.8421 175.829 81.2862 174.761 79.6483 174.034C78.0104 173.306 76.3226 172.932 74.6811 172.934C73.0396 172.935 71.4766 173.312 70.0814 174.042C68.6862 174.772 67.4861 175.842 66.5496 177.19C65.6131 178.538 64.9586 180.139 64.6234 181.899C64.2882 183.66 64.2789 185.547 64.596 187.452C64.9131 189.357 65.5504 191.243 66.4715 193.003V193.003Z" fill="#656769"/>
<path d="M89.28 185.92C90.2199 188.625 90.2211 191.568 89.2835 194.275C88.3459 196.981 86.5242 199.292 84.112 200.836C78.244 203.908 70.348 200.4 66.476 193C64.4088 189.24 63.851 184.833 64.916 180.676C65.2587 182.162 65.7826 183.601 66.476 184.96C70.348 192.356 78.244 195.868 84.112 192.796C85.4058 192.074 86.5341 191.09 87.4242 189.905C88.3143 188.721 88.9465 187.363 89.28 185.92Z" fill="#525252"/>
<path d="M66.4715 193.003C67.3927 194.762 68.5796 196.361 69.9645 197.707C71.3495 199.053 72.9053 200.121 74.5432 200.848C76.1811 201.576 77.869 201.95 79.5105 201.948C81.152 201.947 82.715 201.57 84.1102 200.84C85.5054 200.11 86.7055 199.04 87.6419 197.692C88.5784 196.344 89.233 194.743 89.5682 192.983C89.9034 191.222 89.9127 189.335 89.5956 187.43C89.2785 185.525 88.6412 183.639 87.72 181.879C86.7989 180.12 85.612 178.521 84.227 177.175C82.8421 175.829 81.2862 174.761 79.6483 174.034C78.0104 173.306 76.3226 172.932 74.6811 172.934C73.0396 172.935 71.4766 173.312 70.0814 174.042C68.6862 174.772 67.4861 175.842 66.5496 177.19C65.6131 178.538 64.9586 180.139 64.6234 181.899C64.2882 183.66 64.2789 185.547 64.596 187.452C64.9131 189.357 65.5504 191.243 66.4715 193.003V193.003Z" stroke="#45413C" stroke-width="4" stroke-linecap="round" stroke-linejoin="round"/>
<path d="M170.216 77.668C170.216 81.756 158.916 84.3 157.908 88.068C156.868 91.964 165.348 99.812 163.372 103.224C161.396 106.636 150.316 103.248 147.508 106.056C144.7 108.864 148.136 119.92 144.676 121.92C141.216 123.92 133.416 115.416 129.52 116.456C125.752 117.464 123.208 128.764 119.12 128.764C115.032 128.764 112.488 117.464 108.72 116.456C104.824 115.412 96.9761 123.896 93.5641 121.92C90.1521 119.944 93.5401 108.864 90.7321 106.056C87.9241 103.248 76.8681 106.684 74.8681 103.224C72.8681 99.764 81.3761 91.964 80.3321 88.068C79.3241 84.3 68.0281 81.756 68.0281 77.668C68.0281 73.58 79.3281 71.04 80.3321 67.268C81.3761 63.372 72.8921 55.524 74.8681 52.112C76.8441 48.7 87.9241 52.088 90.7321 49.28C93.5401 46.472 90.1041 35.416 93.5641 33.412C97.0241 31.408 104.824 39.92 108.72 38.88C112.488 37.872 115.036 26.572 119.12 26.572C123.204 26.572 125.748 37.872 129.52 38.88C133.42 39.92 141.264 31.44 144.68 33.416C148.096 35.392 144.68 46.472 147.508 49.28C150.336 52.088 161.372 48.652 163.376 52.112C165.38 55.572 156.868 63.372 157.908 67.268C158.916 71.04 170.216 73.6 170.216 77.668Z" fill="#FFE500"/>
<path d="M94.6641 70.34C94.6641 71.8422 95.2608 73.2829 96.323 74.3451C97.3852 75.4073 98.8259 76.004 100.328 76.004C101.83 76.004 103.271 75.4073 104.333 74.3451C105.395 73.2829 105.992 71.8422 105.992 70.34C105.992 68.8378 105.395 67.3972 104.333 66.335C103.271 65.2728 101.83 64.676 100.328 64.676C98.8259 64.676 97.3852 65.2728 96.323 66.335C95.2608 67.3972 94.6641 68.8378 94.6641 70.34V70.34Z" fill="#45413C"/>
<path d="M132.252 70.34C132.252 71.8422 132.849 73.2829 133.911 74.3451C134.973 75.4073 136.414 76.004 137.916 76.004C139.418 76.004 140.859 75.4073 141.921 74.3451C142.983 73.2829 143.58 71.8422 143.58 70.34C143.58 68.8378 142.983 67.3972 141.921 66.335C140.859 65.2728 139.418 64.676 137.916 64.676C136.414 64.676 134.973 65.2728 133.911 66.335C132.849 67.3972 132.252 68.8378 132.252 70.34V70.34Z" fill="#45413C"/>
<path d="M79.24 92.4199C77.24 96.2759 73.488 100.82 74.872 103.22C76.872 106.68 87.928 103.22 90.736 106.052C93.544 108.884 90.104 119.912 93.568 121.916C97.032 123.92 104.828 115.408 108.724 116.452C112.492 117.46 115.04 128.76 119.124 128.76C123.208 128.76 125.752 117.46 129.524 116.452C133.42 115.412 141.268 123.892 144.68 121.916C148.092 119.94 144.704 108.86 147.512 106.052C150.32 103.244 161.376 106.684 163.376 103.22C164.76 100.82 161.024 96.2759 159.008 92.4199C148.251 102.653 133.973 108.359 119.126 108.359C104.279 108.359 90.0009 102.653 79.244 92.4199H79.24Z" fill="#EBCB00"/>
<path d="M170.216 77.668C170.216 81.756 158.916 84.3 157.908 88.068C156.868 91.964 165.348 99.812 163.372 103.224C161.396 106.636 150.316 103.248 147.508 106.056C144.7 108.864 148.136 119.92 144.676 121.92C141.216 123.92 133.416 115.416 129.52 116.456C125.752 117.464 123.208 128.764 119.12 128.764C115.032 128.764 112.488 117.464 108.72 116.456C104.824 115.412 96.9761 123.896 93.5641 121.92C90.1521 119.944 93.5401 108.864 90.7321 106.056C87.9241 103.248 76.8681 106.684 74.8681 103.224C72.8681 99.764 81.3761 91.964 80.3321 88.068C79.3241 84.3 68.0281 81.756 68.0281 77.668C68.0281 73.58 79.3281 71.04 80.3321 67.268C81.3761 63.372 72.8921 55.524 74.8681 52.112C76.8441 48.7 87.9241 52.088 90.7321 49.28C93.5401 46.472 90.1041 35.416 93.5641 33.412C97.0241 31.408 104.824 39.92 108.72 38.88C112.488 37.872 115.036 26.572 119.12 26.572C123.204 26.572 125.748 37.872 129.52 38.88C133.42 39.92 141.264 31.44 144.68 33.416C148.096 35.392 144.68 46.472 147.508 49.28C150.336 52.088 161.372 48.652 163.376 52.112C165.38 55.572 156.868 63.372 157.908 67.268C158.916 71.04 170.216 73.6 170.216 77.668Z" stroke="#45413C" stroke-width="4" stroke-linecap="round" stroke-linejoin="round"/>
<path d="M119.124 95.9039C122.001 95.9654 124.803 94.984 127.013 93.1409C129.223 91.2977 130.692 88.7173 131.148 85.8759C131.17 85.7052 131.149 85.5318 131.089 85.3708C131.028 85.2097 130.929 85.066 130.8 84.9519C130.667 84.8324 130.509 84.7441 130.337 84.6936C130.165 84.6431 129.985 84.6316 129.808 84.6599C122.729 85.7959 115.515 85.7959 108.436 84.6599C108.259 84.6316 108.079 84.6431 107.907 84.6936C107.735 84.7441 107.577 84.8324 107.444 84.9519C107.316 85.0664 107.217 85.2103 107.158 85.3713C107.098 85.5324 107.078 85.7056 107.1 85.8759C107.556 88.7173 109.025 91.2977 111.235 93.1409C113.445 94.984 116.247 95.9654 119.124 95.9039V95.9039Z" fill="#FFB0CA" stroke="#45413C" stroke-width="4" stroke-linecap="round" stroke-linejoin="round"/>
<path d="M258.636 136.328C259.314 132.058 259.058 127.691 257.886 123.53C256.713 119.368 254.652 115.51 251.845 112.222C249.038 108.933 245.551 106.293 241.624 104.482C237.698 102.672 233.426 101.734 229.102 101.734C224.778 101.734 220.506 102.672 216.58 104.482C212.653 106.293 209.166 108.933 206.359 112.222C203.552 115.51 201.491 119.368 200.318 123.53C199.146 127.691 198.89 132.058 199.568 136.328C200.628 129.254 204.193 122.795 209.613 118.127C215.033 113.459 221.949 110.891 229.102 110.891C236.255 110.891 243.171 113.459 248.591 118.127C254.011 122.795 257.576 129.254 258.636 136.328V136.328Z" fill="white"/>
<path d="M199.2 131.612C199.2 139.543 202.351 147.149 207.959 152.757C213.567 158.365 221.173 161.516 229.104 161.516C237.035 161.516 244.641 158.365 250.249 152.757C255.857 147.149 259.008 139.543 259.008 131.612C259.008 123.681 255.857 116.075 250.249 110.467C244.641 104.859 237.035 101.708 229.104 101.708C221.173 101.708 213.567 104.859 207.959 110.467C202.351 116.075 199.2 123.681 199.2 131.612V131.612Z" stroke="#45413C" stroke-width="4" stroke-linecap="round" stroke-linejoin="round"/>
</svg>
