<?xml version="1.0" ?><svg width="64px" height="64px" viewBox="0 0 64 64" xmlns="http://www.w3.org/2000/svg"><g id="a"/><g id="b"/><g id="c"/><g id="d"/><g id="e"/><g id="f"/><g id="g"/><g id="h"/><g id="i"/><g id="j"/><g id="k"/><g id="l"/><g id="m"/><g id="n"/><g id="o"/><g id="p"/><g id="q"/><g id="r"/><g id="s"/><g id="t"/><g id="u"/><g id="v"/><g id="w"/><g id="x"/><g id="y"/><g id="a`"/><g id="aa"/><g id="ab"/><g id="ac"/><g id="ad"/><g id="ae"/><g id="af"/><g id="ag"/><g id="ah"/><g id="ai"/><g id="aj"/><g id="ak"/><g id="al"/><g id="am"/><g id="an"/><g id="ao"/><g id="ap"/><g id="aq"/><g id="ar"/><g id="as"/><g id="at"/><g id="au"/><g id="av"/><g id="aw"/><g id="ax"><path d="M47.08,15.08s-.03,0-.05,0c-.34,.01-.66,.1-.96,.25l-5.84,3.05c-.36,.19-.65,.46-.86,.8l3.31,4.52,4.56,.46,1.78-2.6-1.94-6.48Z" fill="#fd91ba" id="ay"/><path d="M14.09,32.66l5.57-2.46,.57-4.09-4.41-2.44c-.29-.14-.59-.23-.9-.28l-3.11,2.21,.36,2.69,1.92,4.36Z" fill="#fd91ba" id="b`"/><path d="M37.36,48.91l1.83-9.4-2.98-5.8-6.63-1.02-6.95,2.88,.9,6.56c.09,.66,.52,1.22,1.13,1.49l11.89,5.16c.26,.11,.54,.15,.81,.13Z" fill="#fd91ba" id="ba"/><path d="M47.24,24.16l-7.87-4.99c-.14,.23-.25,.48-.31,.75l-2.85,13.79,1.14,15.2c.36-.03,.71-.16,.99-.41l7.28-6.31c.52-.45,.83-1.09,.86-1.78l.75-16.26Z" fill="#fc76a8" id="bb"/><path d="M47.08,15.08l.16,9.08,10.7,1.75c.56,.09,1.06-.34,1.06-.9h0c0-.7-.21-1.39-.59-1.98l-2.44-3.71c-.39-.58-.93-1.04-1.58-1.32l-6.37-2.74c-.29-.13-.61-.19-.93-.18h0Z" fill="#fc76a8" id="bc"/><path d="M22.64,35.57l13.58-1.86-12.42-9.84c-.48-.38-1.16-.33-1.58,.12l-2,2.13-6.14,6.55-3.65,3.9c-.24,.26-.03,.69,.33,.64l11.88-1.63Z" fill="#ffa6c5" id="bd"/><path d="M12.17,28.3l2.75-4.91c-.37-.06-.75-.06-1.12,0l-3.87,.73c-.68,.13-1.28,.51-1.68,1.07l-3.18,4.47c-.2,.29,.07,.67,.41,.58l6.69-1.95Z" fill="#ffa6c5" id="be"/><path d="M47.08,15.08l2.56,9.48-2.4-.39-.16-9.08Z" fill="#ef5b91" id="bf"/><path d="M39.37,19.18l7.87,4.99v4.09l-7.87-9.07Z" fill="#ef5b91" id="bg"/><path d="M36.22,33.71l-13.31,3.81-.27-1.95,13.58-1.86Z" fill="#fc76a8" id="bh"/><path d="M36.22,33.71l1.14,15.2c.36-.03,.71-.16,.99-.41l2.87-2.48-5-12.31Z" fill="#ef5b91" id="bi"/><path d="M14.92,23.39l-6.71,6.06,3.96-1.15,2.75-4.91Z" fill="#fc76a8" id="bj"/><path d="M56.8,18.77c-.5-.75-1.19-1.33-2.02-1.69l-6.37-2.74c-.44-.19-.92-.28-1.41-.26-.48,.02-.96,.14-1.39,.37l-5.84,3.04c-.87,.46-1.49,1.27-1.69,2.23l-2.52,12.2-11.15-8.84c-.89-.71-2.15-.61-2.93,.22l-1.46,1.56-3.73-2.06c-.67-.37-1.71-.57-2.69-.38l-3.87,.73c-.94,.18-1.76,.7-2.31,1.48l-3.18,4.47c-.34,.48-.34,1.11,0,1.59,.34,.47,.94,.68,1.5,.52l5.85-1.7,1.3,2.96-3.21,3.42c-.4,.43-.49,1.05-.22,1.58,.27,.52,.82,.81,1.41,.73l10.88-1.49,.76,5.57c.14,1,.8,1.87,1.72,2.27l11.89,5.16c.34,.15,.71,.22,1.07,.22,.64,0,1.28-.23,1.78-.66l7.28-6.31c.72-.63,1.16-1.53,1.2-2.48l.7-15.14,9.59,1.57c.56,.09,1.12-.07,1.55-.43,.43-.36,.67-.9,.67-1.46,0-.9-.26-1.77-.76-2.52l-2.44-3.71Zm-10.69-2.33l.1,5.88-5.14-3.26,5.04-2.62Zm-27.49,9.92l-4.22,4.5-1.11-2.52,2.11-3.77,3.22,1.78Zm-9.55-.59c.25-.35,.62-.59,1.05-.67l3.01-.57-1.63,2.91-4.57,1.33,2.14-3Zm3.29,10.19l10.59-11.3c.06-.07,.16-.07,.23-.02l10.58,8.39-21.4,2.93Zm12.71,6.74c-.29-.13-.5-.4-.54-.71l-.76-5.57,11.53-1.58,.96,12.71-11.19-4.85Zm19.9-1.27l-6.73,5.84-1.02-13.5,2.7-13.07,6.29,3.99-.73,15.68c-.02,.41-.21,.8-.52,1.07Zm3.26-18.13l-.12-6.92,5.89,2.53c.47,.2,.86,.53,1.14,.95l2.44,3.71c.26,.39,.41,.85,.42,1.32l-9.77-1.6Z"/></g></svg>