<?xml version="1.0" ?><svg width="64px" height="64px" viewBox="0 0 64 64" xmlns="http://www.w3.org/2000/svg"><g id="a"/><g id="b"/><g id="c"/><g id="d"/><g id="e"/><g id="f"/><g id="g"/><g id="h"/><g id="i"/><g id="j"/><g id="k"/><g id="l"/><g id="m"/><g id="n"/><g id="o"/><g id="p"/><g id="q"/><g id="r"/><g id="s"/><g id="t"/><g id="u"/><g id="v"/><g id="w"/><g id="x"/><g id="y"/><g id="a`"/><g id="aa"/><g id="ab"/><g id="ac"/><g id="ad"/><g id="ae"/><g id="af"/><g id="ag"/><g id="ah"/><g id="ai"/><g id="aj"/><g id="ak"/><g id="al"><path d="M18.16,25.11l2.55-5.01-2.55-4.8-2.84,1.19c-.33,.14-.65,.3-.96,.48l-2.98,3.9,.93,2.91,5.85,1.32Z" fill="#e2eef2" id="am"/><path d="M45.08,50.85l-4.67-3.12-4.57,3.06,4.16,7.92c.2,.38,.75,.39,.96,.01l3.86-6.98c.15-.28,.24-.58,.27-.89h0Z" fill="#d7e5eb" id="an"/><path d="M41.53,40.07l-6.63,1.67-2.74,8.85c.27,.11,.56,.18,.86,.18l2.83,.02,9.24,.06c.03-.32,0-.64-.12-.95l-3.43-9.83Z" fill="#e2eef2" id="ao"/><path d="M45.84,12.72l-2.65,7.47,2.65,4.92,5.85-1.32h0l.63-3.64-2.68-3.17c-.31-.18-.63-.34-.96-.48l-2.84-1.19v-2.58h0Z" fill="#e2eef2" id="ap"/><path d="M25.86,5c-.65,0-1.27,.26-1.72,.72l-5.26,5.29c-.45,.46-.71,1.07-.71,1.72h0v21.5c0,.65,.24,1.28,.67,1.77l12.49,14.02c.23,.26,.52,.45,.83,.58l9.37-10.51,3.64-4.08h0c.43-.49,.67-1.12,.67-1.77V12.72c0-.64-.26-1.26-.71-1.71l-5.26-5.29c-.46-.46-1.08-.72-1.72-.72h-12.28Z" fill="#f0f4f6" id="aq"/><path d="M14.34,17.05l.34,7.27-2.37-.53h0l-.42-2.42,2.45-4.32Z" fill="#d7e5eb" id="ar"/><path d="M12.31,23.79l2.05-6.82c-.27,.16-.53,.33-.78,.51l-5.62,4.18c-.46,.34-.57,.97-.26,1.45l2.74,4.25c.22,.33,.72,.26,.84-.12l1.04-3.46Z" fill="#f0f4f6" id="as"/><path d="M49.66,17.05l-.34,7.27,2.37-.53h0l.42-2.42-2.45-4.32Z" fill="#d7e5eb" id="at"/><path d="M49.64,16.97l2.05,6.82,1.04,3.46h0c.12,.38,.62,.45,.84,.12l2.74-4.25c.31-.48,.19-1.11-.26-1.45l-5.62-4.18c-.25-.19-.51-.35-.78-.51h0Z" fill="#f0f4f6" id="au"/><path d="M35.84,50.79l1.61,3.07,7.63-3.01-9.24-.06Z" fill="#c0d8df" id="av"/><path d="M32.16,50.58l10.59-7.01-1.22-3.5-9.37,10.51Z" fill="#d7e5eb" id="aw"/><path d="M9.59,27.91c.31,.49,.86,.74,1.44,.66,.57-.08,1.03-.48,1.2-1.03l.77-2.57,4.16,.94v8.32c0,.9,.33,1.76,.93,2.43l12.49,14.02c.61,.69,1.5,1.09,2.42,1.09l2.23,.02,3.88,7.39c.26,.5,.78,.82,1.35,.83h.02c.56,0,1.08-.31,1.35-.8l3.86-6.98c.45-.81,.53-1.78,.22-2.65l-3.24-9.27,3.25-3.64c.6-.67,.93-1.53,.93-2.43v-8.32l4.16-.94,.77,2.57c.17,.55,.63,.95,1.2,1.03,.58,.08,1.12-.17,1.44-.66l2.74-4.25c.59-.92,.37-2.15-.51-2.8l-5.62-4.18c-.6-.45-1.26-.82-1.95-1.11l-2.23-.94v-1.9c0-.92-.36-1.78-1-2.43l-5.26-5.29c-.64-.64-1.53-1.01-2.43-1.01h-12.28c-.92,0-1.78,.36-2.43,1.01l-5.26,5.29c-.65,.65-1,1.52-1,2.43v1.9l-2.23,.94c-.7,.29-1.35,.67-1.95,1.11l-5.62,4.18c-.88,.65-1.1,1.88-.51,2.8l2.74,4.25Zm30.89,29.59l-2.99-5.69,6.11,.04-3.12,5.65Zm3.4-7.65l-8.03-.05h-1.63l6.92-7.78,2.74,7.84Zm11.59-27.27l-2.11,3.28-1.91-6.37,4.01,2.98s.04,.07,.02,.11Zm-7.18-5.16c.19,.08,.35,.21,.53,.3l1.61,5.34-3.58,.81v-7.06l1.45,.61Zm-29.13-4.67c0-.39,.15-.75,.42-1.02l5.26-5.29c.27-.27,.63-.42,1.02-.42h12.28c.38,0,.75,.15,1.01,.42l5.26,5.29c.27,.27,.42,.64,.42,1.02v21.49c0,.41-.15,.8-.42,1.1l-12.42,13.94-12.42-13.94c-.27-.3-.42-.69-.42-1.1V12.74Zm-2,4.06v7.06l-3.58-.81,1.61-5.34c.18-.09,.34-.22,.53-.3l1.45-.61Zm-8.61,5.66l4.01-2.98-1.92,6.37-2.11-3.28s-.01-.08,.02-.11Z"/></g><g id="ax"/><g id="ay"/><g id="b`"/><g id="ba"/><g id="bb"/><g id="bc"/><g id="bd"/><g id="be"/><g id="bf"/><g id="bg"/><g id="bh"/><g id="bi"/></svg>