<?xml version="1.0" ?><svg width="64px" height="64px" viewBox="0 0 64 64" xmlns="http://www.w3.org/2000/svg"><g id="a"/><g id="b"/><g id="c"/><g id="d"/><g id="e"/><g id="f"/><g id="g"/><g id="h"/><g id="i"/><g id="j"/><g id="k"/><g id="l"/><g id="m"/><g id="n"/><g id="o"/><g id="p"/><g id="q"/><g id="r"/><g id="s"/><g id="t"/><g id="u"/><g id="v"/><g id="w"/><g id="x"/><g id="y"/><g id="a`"/><g id="aa"/><g id="ab"/><g id="ac"/><g id="ad"/><g id="ae"/><g id="af"/><g id="ag"/><g id="ah"/><g id="ai"/><g id="aj"/><g id="ak"/><g id="al"/><g id="am"/><g id="an"><path d="M40.02,29.63l-22.78,3.44,4.18,9.32,5.42,3.48,10.21,1.2,4.53-8.2-1.57-9.25Z" fill="#e2eef2" id="ao"/><path d="M43.69,8.1l-5.72,2.93-1.74,9.29,3.8,9.31,5.27-13.92-1.61-7.61Z" fill="#9dacb9" id="ap"/><path d="M50.24,11.03l-1.62-2.93h-4.94l-1.01,5.91,7.56-2.97Z" fill="#8598ab" id="aq"/><path d="M11.07,40.95l-.39-3.66-3.32-2.52c-.21,.19-.37,.42-.46,.7l-1.87,5.84c-.14,.43,.24,.84,.68,.75l5.36-1.12Z" fill="#d7e5eb" id="ar"/><path d="M20.58,50.9l-3.18-.13-2.59,4.87c.16,.16,.38,.27,.63,.27h9.7c.35,0,.51-.43,.24-.66l-4.8-4.35Z" fill="#e2eef2" id="as"/><path d="M7.37,34.79l1.25,6.68,2.45-.51-.27-2.51-3.43-3.65Z" fill="#c0d8df" id="at"/><path d="M17.24,33.07l-9.88,1.71,3.71,6.17,4.71,3.4,2.71-4.15-1.25-7.14Z" fill="#e2eef2" id="au"/><path d="M44.46,50.9l-2.88,.23,.38,4.53c.26,.16,.56,.25,.88,.25h10.15c.26,0,.34-.35,.12-.47l-8.64-4.54Z" fill="#d7e5eb" id="av"/><path d="M44.46,50.9l-2.32,.18c-.17,.54-.32,1.11-.43,1.67l.24,2.91,5.53-3.17-3.03-1.59Z" fill="#c0d8df" id="aw"/><path d="M50.75,38.71l-8.98,1.8-4.72,6.56,4.29,7.95c.14,.27,.36,.49,.61,.64l2.5-4.76,5.99-11.4c.13-.25,.23-.52,.3-.79h0Z" fill="#e2eef2" id="ax"/><path d="M50.24,11.03l-1.93,6.01,2.1,3.47h7.58c.56,0,1.01-.45,1.01-1.01v-3.2c0-.62-.34-1.18-.89-1.46l-6.97-3.58c-.28-.14-.58-.22-.89-.23Z" fill="#e2eef2" id="ay"/><path d="M42.68,14.01l-2.66,15.62-2.97,17.44,13.69-8.36c.1-.36,.15-.73,.15-1.1l-.48-17.1-.17-9.48c-.16,0-.32,0-.47,.03-.16,.03-.31,.07-.46,.13l-6.63,2.81Z" fill="#f0f4f6" id="b`"/><path d="M26.85,45.87l-9.6-12.8-1.46,11.29-1.22,10.55c-.04,.28,.06,.54,.24,.73l5.78-4.74h0l6.26-5.02Z" fill="#f0f4f6" id="ba"/><path d="M50.24,11.03l.17,9.48h3.79l-3.96-9.48Z" fill="#d7e5eb" id="bb"/><path d="M58.56,13.95l-6.97-3.58c-.23-.12-.47-.2-.71-.26l-1.38-2.5c-.18-.32-.51-.52-.88-.52h-4.94c-.16,0-.31,.04-.46,.11l-5.72,2.93c-.28,.14-.47,.4-.53,.71l-1.74,9.29c-.04,.19-.02,.38,.06,.56l3.32,8.13-30.56,4.56c-.98,.14-1.81,.84-2.11,1.79l-1.88,5.84c-.17,.54-.05,1.12,.33,1.54s.94,.61,1.5,.49l4.93-1.03,3.88,2.8-1.15,9.95c-.07,.54,.1,1.08,.45,1.48s.87,.64,1.42,.64h9.7c.58,0,1.09-.35,1.29-.9,.2-.54,.05-1.14-.37-1.5l-3.93-3.56,5.02-4.03,9.28,1.09,4.04,7.49c.47,.87,1.37,1.41,2.36,1.41h10.15c.57,0,1.07-.39,1.21-.95,.14-.56-.12-1.13-.63-1.4l-7.75-4.08,5.52-10.51c.38-.73,.58-1.55,.56-2.39l-.45-16.07h6.55c1.11,0,2.01-.9,2.01-2v-3.2c0-1-.55-1.9-1.44-2.35Zm-8.67,23.67c0,.18-.09,.34-.12,.51l-11.36,6.94,5.16-30.36,5.69-2.41,.15,8.22h0l.48,17.09Zm-1.17-27.26l-4.76,2.01,.56-3.28h3.5l.7,1.26Zm-11.47,9.85l1.6-8.52,3.51-1.8-.67,3.94h0l-2.07,12.18-2.37-5.8Zm1.55,10.61l-2.58,15.14-8.84-1.03-8.37-11.15,19.79-2.95Zm-31.32,6.11l2,3.33-3.29,.68,1.29-4.02Zm4.33,3.33l-2.98-4.97,7.25-1.08-1.08,8.35-3.19-2.3Zm11.69,14.64h-6.24l3.28-2.69,2.96,2.69Zm-7.79-1.31l2.2-17.95,7.55,10.06-9.74,7.89Zm34.21,1.31h-6.45l1.4-2.66,5.05,2.66Zm-6.36-4.47h0l-1.76,3.35-3.42-6.35,9.96-6.08-4.77,9.08Zm14.42-30.92h-6.6l-.13-7.05,6.38,3.27c.22,.11,.35,.33,.35,.57v3.2Z"/></g><g id="bc"/><g id="bd"/><g id="be"/><g id="bf"/><g id="bg"/><g id="bh"/><g id="bi"/><g id="bj"/><g id="bk"/><g id="bl"/></svg>