<?xml version="1.0" ?><svg width="64px" height="64px" viewBox="0 0 64 64" xmlns="http://www.w3.org/2000/svg"><g id="a"/><g id="b"/><g id="c"/><g id="d"/><g id="e"/><g id="f"/><g id="g"/><g id="h"/><g id="i"/><g id="j"/><g id="k"/><g id="l"/><g id="m"/><g id="n"/><g id="o"/><g id="p"/><g id="q"/><g id="r"/><g id="s"/><g id="t"/><g id="u"/><g id="v"/><g id="w"/><g id="x"/><g id="y"/><g id="a`"/><g id="aa"><path d="M50.96,27.29l-3.11-3.4-5.79-.13-1.05,4.64,2.98,6.08,.22-.22,4.16-2.1,2.58-4.86h0Z" fill="#feb87e" id="ab"/><path d="M18.9,58.18v-5.38l-3.94-.27-9.82,5.33c-.23,.13-.14,.48,.12,.48h12.76c.3,0,.6-.06,.88-.17Z" fill="#feb87e" id="ac"/><path d="M34.15,44.55l9.84-10.08-1.93-10.72-15.17,.53c-.4,.02-.77,.19-1.04,.46l-2.53,13.98,10.84,5.83Z" fill="#fca65c" id="ad"/><path d="M50.96,27.29l-6.96,7.18,7.82,3.23c.39,.18,.83-.15,.76-.58l-1.61-9.83Z" fill="#fca65c" id="ae"/><path d="M53.01,9.26l-2.24,4.23,1.24,4.57h5.98c.56,0,1.01-.46,1.01-1.02v-1.95c0-.64-.8-1.63-.8-1.63l-5.19-4.2Z" fill="#feb87e" id="af"/><path d="M53.01,9.26l-1.9,5.5,.9,3.3h2.43l-1.43-8.8Z" fill="#fca65c" id="ag"/><path d="M48.44,5.66c-.26-.03-.52,.17-.51,.46,.01,1.05,.02,2.09,.04,3.14l2.64,1.71,2.41-1.71-4.32-3.5s-.16-.1-.25-.11h0Z" fill="#feb87e" id="ah"/><path d="M47.94,7.61c0,.55,.01,1.1,.02,1.66l1.79,1.17,3.25-1.17-5.06-1.66Z" fill="#fca65c" id="ai"/><path d="M35.92,51.85l-5.6,.82-1.81,5.46c.31,.14,.65,.21,.99,.21h14.94c.31,0,.43-.4,.18-.57l-8.7-5.93Z" fill="#fca65c" id="aj"/><path d="M35.92,51.85l-4.18,.62-3.23,5.67,11.08-3.78-3.67-2.5Z" fill="#f5934a" id="ak"/><path d="M24.99,36.51l-3.93,8.74,2.67,8.52,4.05,3.89c.21,.2,.46,.36,.73,.48l7.41-6.28-2.34-12.51c-.11-.6-.57-1.07-1.16-1.2l-7.43-1.63Z" fill="#feb87e" id="al"/><path d="M53.01,9.26h-5.86c-.52,0-.98,.34-1.12,.84l-3.96,13.64,8.89,3.54,1.05-9.22,1-8.8Z" fill="#fdc99c" id="am"/><path d="M25.85,24.75c-.14,.15-.26,.32-.34,.52l-8.53,22.03-2.03,5.23,3.94,5.65c.31-.12,.59-.3,.83-.53l3.99-3.88h0l1.26-17.26,.86-11.76Z" fill="#fdc99c" id="an"/><path d="M50.96,27.29l-6.96,7.18,3.42,1.41,3.55-8.59Z" fill="#f5934a" id="ao"/><path d="M14.96,52.53l-3.03,1.64,6.97,4-3.94-5.65Z" fill="#faa258" id="ap"/><path d="M58.83,12.69l-9.61-7.77c-.23-.15-.46-.23-.66-.25-.42-.05-.83,.09-1.15,.37-.31,.28-.48,.68-.48,1.1l.02,2.14c-.88,.08-1.64,.7-1.89,1.56l-3.76,12.95-14.45,.51c-1.02,.04-1.91,.67-2.28,1.62l-10.42,26.92-9.5,5.16c-.5,.28-.76,.86-.62,1.42s.64,.95,1.22,.95h13.76c.26,0,.51-.1,.7-.28l4.02-3.91,3.36,3.22c.65,.63,1.51,.97,2.41,.97h14.94c.58,0,1.08-.37,1.25-.93,.17-.55-.04-1.15-.52-1.47l-8.35-5.69-1.19-6.8,8.6-8.81,7.16,2.96c.52,.24,1.12,.17,1.58-.18,.45-.35,.68-.91,.58-1.47l-1.59-9.69,.93-8.2h5.09c1.11,0,2.01-.9,2.01-2.01v-1.95c0-.92-.78-1.96-1.02-2.26-.04-.05-.09-.1-.15-.15Zm-8.65-4.43h-1.23v-1.01l1.23,1.01Zm-3.2,2.12c.02-.07,.09-.12,.16-.12h4.74l-1.77,15.61-6.83-2.72,3.71-12.77Zm-3.62,14.96l5.83,2.32-4.57,4.71-1.26-7.03Zm-20.61,27.96l-3.6,3.5-3.08-4.41,8.31-21.47-1.64,22.39Zm-8.11,.52l2.45,3.51H8.18l6.47-3.51Zm10.11-.47l1.14-15.63,6.63,1.46,2.3,12.27-6.4,5.43-3.67-3.52Zm6.22,3.98l5-4.24,6.23,4.24h-11.23Zm4.13-15.21l-.74-3.96c-.07-.39-.38-.71-.77-.79l-7.56-1.66,.76-10.35c.05-.02,.07-.09,.12-.09l14.31-.5,1.68,9.36-7.8,7.99Zm10.62-8.02l4.55-4.7,1.16,7.06-5.71-2.36Zm12.25-17.05h-4.86l.67-5.87,3.69,2.98c.26,.34,.5,.78,.52,.93v1.96Z"/></g><g id="aq"/><g id="ar"/><g id="as"/><g id="at"/><g id="au"/><g id="av"/><g id="aw"/><g id="ax"/><g id="ay"/><g id="b`"/><g id="ba"/><g id="bb"/><g id="bc"/><g id="bd"/><g id="be"/><g id="bf"/><g id="bg"/><g id="bh"/><g id="bi"/><g id="bj"/><g id="bk"/><g id="bl"/><g id="bm"/></svg>