<?xml version="1.0" ?><svg width="64px" height="64px" viewBox="0 0 64 64" xmlns="http://www.w3.org/2000/svg"><g id="a"/><g id="b"/><g id="c"/><g id="d"/><g id="e"/><g id="f"/><g id="g"/><g id="h"/><g id="i"/><g id="j"/><g id="k"/><g id="l"/><g id="m"/><g id="n"/><g id="o"/><g id="p"/><g id="q"/><g id="r"/><g id="s"/><g id="t"/><g id="u"/><g id="v"/><g id="w"/><g id="x"><path d="M21.76,42.48l-1.28,9.25c-.05,.39,.38,.66,.7,.44l7.05-4.69h17.34l7.05,4.69c.33,.22,.76-.05,.7-.44l-1.28-9.25H21.76Z" fill="#fd91ba" id="y"/><path d="M5,31.36l5.25-1.17,.51-4.75-4.75,.08c-.56,0-1.01,.47-1.01,1.03v4.81Z" fill="#fc76a8" id="a`"/><path d="M19.57,37.1l3.9-10.9-6.96-6.67-5.76,5.91-5.76,5.91v4.73c0,.56,.45,1.01,1.01,1.01h13.56Z" fill="#fd91ba" id="aa"/><path d="M16.52,19.53l3.05,7.52,7.91-4.12,2.85-7.7-15.87-3.02c-.43-.08-.78,.34-.61,.75l2.67,6.58Z" fill="#ffd0e0" id="ab"/><path d="M53.11,11.93c-.32,.1-.61,.26-.87,.49l-4.76,4.28,2.4,3.91,4.35,1.32-.62-5.09,.84-2.62-1.35-2.29Z" fill="#fd91ba" id="ac"/><path d="M54.25,21.93l-6.76-5.23-1.11-.86c-.52-.4-1.16-.62-1.81-.62h-14.23l-10.76,11.82v12.73c0,.64,.3,1.24,.8,1.63l1.39,1.08,6.47,5.01h17.34l6.47-5.01,1.39-1.08c.5-.39,.8-.99,.8-1.63V21.93Z" fill="#ffa6c5" id="ad"/><path d="M53.77,11.83c-.25,0-.5,.05-.74,.13l.6,4.88,5.22-3.85c.29-.21,.16-.67-.19-.7l-4.64-.45c-.08,0-.16-.01-.24-.01h0Z" fill="#fc76a8" id="ae"/><path d="M53.03,11.96l.6,4.88,2.1-1.55-2.7-3.33Z" fill="#ef5b91" id="af"/><path d="M54.25,21.93l-4.87-6.92-1.88,1.69,6.76,5.23Z" fill="#fc76a8" id="ag"/><path d="M45.58,47.49l7.03-.97-.56-4.04-6.47,5.01Z" fill="#fc76a8" id="ah"/><path d="M28.24,47.49l-7.03-.97,.56-4.04,6.47,5.01Z" fill="#fc76a8" id="ai"/><path d="M16.52,19.53l3.05,17.57v-10.05l-3.05-7.52Z" fill="#fc76a8" id="aj"/><path d="M5,31.36l3.39-5.88,2.37-.04-5.76,5.91Z" fill="#ef5b91" id="ak"/><path d="M6.01,38.1h12.56v1.68c0,.94,.44,1.85,1.19,2.42l.94,.72-1.2,8.68c-.08,.57,.18,1.13,.67,1.43,.48,.31,1.1,.3,1.58-.02l6.8-4.52h16.74l6.8,4.52c.24,.16,.52,.24,.8,.24s.54-.07,.78-.22c.48-.3,.75-.87,.67-1.43l-1.2-8.68,.94-.72c.74-.58,1.19-1.48,1.19-2.42h0V21.93h0s0-.08,0-.12l-.55-4.52,4.75-3.5c.47-.34,.67-.93,.51-1.49-.15-.56-.63-.96-1.2-1.01l-5.65-.55c-.28-.02-.56,.06-.77,.25l-4.89,4.4-1.25-.97c-.18-.14-.39-.21-.61-.21h-15.15l-15.78-3c-.56-.1-1.13,.1-1.49,.54-.36,.44-.45,1.04-.24,1.57l2.43,5.97-5.01,5.15-4.33,.07c-1.1,.02-2,.93-2,2.03v9.54c0,1.11,.9,2.01,2.01,2.01ZM30.78,16.22h14.46l8.01,6.2v17.35c0,.33-.15,.64-.41,.84l-7.6,5.88H28.58l-7.6-5.88c-.26-.2-.41-.51-.41-.84v-12.34l10.21-11.21Zm21.86,.74h0l.33,2.71-3.91-3.03,3.19-2.87,.39,3.19ZM21.64,50.68l.88-6.35,4.01,3.1-4.88,3.25Zm25.65-3.25l4.01-3.1,.88,6.35-4.88-3.25Zm7.12-32.42l-.26-2.16,2.82,.28-2.55,1.88Zm-39.33-1.68l13.31,2.53-8.49,9.33-2.45-6.05-2.36-5.81Zm1.08,7.98l2.4,5.92v8.86H6v-4.35l10.17-10.43Zm-7.81,5.16l-2.33,2.39v-2.36l2.33-.04Z"/></g><g id="al"/><g id="am"/><g id="an"/><g id="ao"/><g id="ap"/><g id="aq"/><g id="ar"/><g id="as"/><g id="at"/><g id="au"/><g id="av"/><g id="aw"/><g id="ax"/><g id="ay"/><g id="b`"/><g id="ba"/><g id="bb"/><g id="bc"/><g id="bd"/><g id="be"/><g id="bf"/><g id="bg"/><g id="bh"/><g id="bi"/><g id="bj"/><g id="bk"/></svg>