<?xml version="1.0" ?><svg width="64px" height="64px" viewBox="0 0 64 64" xmlns="http://www.w3.org/2000/svg"><g id="a"/><g id="b"/><g id="c"/><g id="d"/><g id="e"/><g id="f"/><g id="g"/><g id="h"/><g id="i"/><g id="j"/><g id="k"/><g id="l"/><g id="m"/><g id="n"/><g id="o"/><g id="p"/><g id="q"/><g id="r"/><g id="s"><path d="M35.93,25.36l6.81-1.01,1.15-10.68-4.98,1.94c-.71,.28-1.23,.88-1.4,1.62l-1.61,7.09c-.08,.35-.06,.7,.03,1.03h0Z" fill="#fce87b" id="t"/><path d="M40.02,29.81l-31.82,4.75c-.32,.05-.61,.19-.84,.4l.48,4.44,3.22,1.73,4.71,3.4,11.06,1.52,10.21,1.2,4.54-10.56-1.58-6.88Z" fill="#d6b1ed" id="u"/><path d="M17.24,33.25l-1.46,11.29h0l-1.22,10.55c-.04,.28,.06,.54,.24,.73l4.66-1.3,1.13-3.44,6.25-5.01h0l-9.61-12.8Z" fill="#e5c9f3" id="v"/><path d="M50.75,38.89l-10.11,1.71-3.58,6.65,4.29,7.95c.14,.27,.36,.49,.61,.64l3.49-1.99-.99-2.77,5.99-11.4c.13-.25,.23-.52,.3-.79h0Z" fill="#d6b1ed" id="w"/><path d="M26.85,46.06l10.21,1.2-10.21-1.2Z" fill="#ffa6c5" id="x"/><path d="M15.78,44.54l1.46-11.29-1.46,11.29Z" fill="#ffa6c5" id="y"/><path d="M41.24,22.65l-5.31,2.71c.1,.37,.29,.72,.57,1l3.52,3.45,2.57-4.13-1.34-3.03Z" fill="#fdda5c" id="a`"/><path d="M57.54,7.92c-.17-.02-.35,.02-.52,.12l-5.89,3.41,2.63,2.64,2.77,.13,1.74-5.17c.19-.56-.22-1.08-.73-1.13h0Z" fill="#f0f4f6" id="aa"/><path d="M56.54,14.22l-5.4-2.77c-.28-.14-.58-.22-.89-.23h0l-1.94,5.81,2.11,3.67h7.58c.56,0,1-.45,1-1v-3.2c0-.62-.34-1.18-.89-1.46l-1.57-.81Z" fill="#d6b1ed" id="ab"/><path d="M17.24,33.25l-3.81,9.59,2.36,1.7,1.46-11.29Z" fill="#ca96e5" id="ac"/><path d="M37.06,47.25l-.37-16.94,3.33-.5-2.97,17.44Z" fill="#ca96e5" id="ad"/><path d="M50.24,11.21l-.58,8.17,.75,1.31h3.24l-3.41-9.48Z" fill="#ca96e5" id="ae"/><path d="M50.24,11.21c-.31-.01-.64,.04-.93,.17l-5.42,2.29-.27,.11c-.51,.2-1.01,.8-1.1,1.35-1.84,10.8-3.81,22.39-5.46,32.12l13.69-8.36c.1-.36,.15-.73,.14-1.1-.32-8.86-.49-17.71-.65-26.57h0Z" fill="#e5c9f3" id="af"/><path d="M44.46,51.08l-2.5,4.76c.26,.16,.56,.25,.87,.25h10.15c.26,0,.34-.35,.12-.47l-8.64-4.54Z" fill="#ca96e5" id="ag"/><path d="M11.07,41.14l-3.71-6.17c-.21,.19-.37,.42-.46,.7l-1.87,5.84c-.14,.43,.24,.84,.68,.75l5.36-1.12Z" fill="#ca96e5" id="ah"/><path d="M20.58,51.08l-5.78,4.74c.16,.17,.38,.27,.63,.27h9.7c.35,0,.51-.43,.24-.66l-4.8-4.35Z" fill="#d6b1ed" id="ai"/><path d="M14.83,55.8l8.15-2.54-2.4-2.18-5.75,4.72Z" fill="#ca96e5" id="aj"/><path d="M44.46,51.08l-2.5,4.76,4.05-3.95-1.55-.81ZM7.36,34.96l1.38,6.66,2.32-.48-3.71-6.17Z" fill="#a26fd1" id="ak"/><path d="M58.56,14.13l-.81-.41,1.46-4.35c.25-.74,.02-1.54-.59-2.03-.6-.49-1.43-.56-2.11-.17l-5.47,3.17c-.25-.07-.51-.12-.77-.13-.47-.02-.94,.07-1.36,.24l-5.41,2.29-4.96,1.93c-1.02,.4-1.77,1.27-2.01,2.33l-1.61,7.09c-.25,1.08,.08,2.19,.87,2.97l2.09,2.05-29.83,4.45c-.98,.14-1.81,.84-2.11,1.79l-1.87,5.84c-.17,.54-.05,1.12,.33,1.54,.38,.42,.94,.61,1.5,.49l4.93-1.03,3.88,2.8-1.15,9.95c-.07,.54,.1,1.08,.45,1.48,.36,.41,.87,.64,1.42,.64h9.7c.58,0,1.08-.35,1.29-.89,.2-.54,.05-1.14-.37-1.5l-3.93-3.57,5.02-4.03,9.28,1.09,4.04,7.49c.47,.87,1.37,1.41,2.36,1.41h10.15c.57,0,1.07-.39,1.21-.95,.14-.56-.12-1.13-.63-1.41l-7.75-4.08,5.52-10.51c.38-.73,.58-1.55,.56-2.39l-.45-16.07h6.55c1.1,0,2-.9,2-2v-3.2c0-1-.55-1.9-1.44-2.35Zm-1.36-5.05l-1.25,3.71-2.74-1.4,3.98-2.31Zm-7.94,3.4l.15,8.22h0l.48,17.09c0,.18-.09,.34-.12,.51l-11.36,6.94,2.6-15.27h0l2.44-14.33c.08-.47,.39-.87,.84-1.06l4.98-2.11Zm-13.04,33.66l-8.84-1.04-8.37-11.16,19.79-2.95-2.58,15.15Zm2.26-28.69c.09-.42,.39-.76,.79-.91l2.13-.83-1.07,6.27-3.25,1.66,1.4-6.19Zm1.43,6.99l-.56,3.31-2.03-1.99,2.59-1.32ZM7.49,37.11l2,3.33-3.29,.68,1.29-4.02Zm4.33,3.33l-2.98-4.97,7.25-1.08-1.08,8.35-3.19-2.3Zm11.69,14.64h-6.24l3.28-2.69,2.96,2.69Zm-7.79-1.31l2.2-17.95,7.55,10.06-9.74,7.89Zm34.21,1.31h-6.45l1.4-2.66,5.05,2.66Zm-8.12-1.13l-3.43-6.35,9.96-6.08-6.53,12.43ZM58,19.69h-6.6l-.13-7.05,6.38,3.27c.22,.11,.35,.33,.35,.58v3.2Z"/></g><g id="al"/><g id="am"/><g id="an"/><g id="ao"/><g id="ap"/><g id="aq"/><g id="ar"/><g id="as"/><g id="at"/><g id="au"/><g id="av"/><g id="aw"/><g id="ax"/><g id="ay"/><g id="b`"/><g id="ba"/><g id="bb"/><g id="bc"/><g id="bd"/><g id="be"/><g id="bf"/><g id="bg"/><g id="bh"/><g id="bi"/><g id="bj"/><g id="bk"/><g id="bl"/><g id="bm"/><g id="bn"/><g id="bo"/><g id="bp"/></svg>